<?xml version="1.0" standalone="no"?><!DOCTYPE svg PUBLIC "-//W3C//DTD SVG 1.1//EN" "http://www.w3.org/Graphics/SVG/1.1/DTD/svg11.dtd"><svg t="1743045270417" class="icon" viewBox="0 0 1024 1024" version="1.1" xmlns="http://www.w3.org/2000/svg" p-id="12398" xmlns:xlink="http://www.w3.org/1999/xlink" width="0" height="0"><path d="M141.59852 12.3003m12.3003 0l541.21321401 0q12.3003 0 12.3003 12.300301l0 974.798798q0 12.3003-12.3003 12.300301l-541.21321401 0q-12.3003 0-12.3003-12.300301l0-974.798798q0-12.3003 12.3003-12.300301Z" fill="#13227a" p-id="12399"></path><path d="M695.11203401 0L153.89882 0a24.600601 24.600601 0 0 0-24.6006 24.600601l0 974.798798a24.600601 24.600601 0 0 0 24.6006 24.600601l541.21321399 0a24.600601 24.600601 0 0 0 24.6006-24.600601L719.71263401 24.600601a24.600601 24.600601 0 0 0-24.60060002-24.600601zM153.89882 24.600601l541.21321399 0 0 974.798798L153.89882 999.399399 153.89882 24.600601z" fill="#13227a" p-id="12400"></path><path d="M361.798496 684.03815c0.965574 0.347483 1.931147 0.688817 2.905946 1.020925L267.799601 968.033634h-8.625585z m38.838198 9.400505c1.014775 0.129153 2.02955 0.252156 3.050475 0.369009L372.899517 968.033634h-7.730739z m43.051051 0.544288l28.309141 274.050691h-7.675387l-23.693453-273.761634 1.531387-0.138378 1.528312-0.153754z m39.145706-8.425706l94.057321 282.476397h-8.465681l-88.516036-281.529274c0.488937-0.153754 0.977874-0.307508 1.463735-0.467411l1.463736-0.479712z m36.175183-16.59618l145.349574 243.250739v15.658282l-148.003364-257.353033c0.442811-0.255231 0.888697-0.513538 1.331508-0.774919l1.322282-0.781069z m-193.053213-2.490811c0.870246 0.553514 1.740492 1.091652 2.616889 1.62979L184.649571 904.090523v-14.388277z m224.938667-21.587027l113.46412 120.629045v8.647111l-115.7243-127.18818 1.134702-1.04245 1.125478-1.045526z m-256.246006-3.351832l2.204829 2.149478-112.206415 117.058883v-8.188925l110.001586-111.019436z m282.291892-27.085261l87.418234 59.748709v5.93182l-89.177177-63.155892 0.882546-1.257706 0.873321-1.266931z m-307.529033-4.003748l1.691291 2.567688-86.455736 57.906739v-5.72579l84.764445-54.748637z m326.342342-31.175111l68.604925 27.589574v4.674114l-69.773454-29.428469 0.590415-1.414534 0.578114-1.420685z m-344.177778-4.338931c0.359784 0.959423 0.725718 1.915772 1.097802 2.869045L184.649571 604.473658v-4.588012z m354.955916-34.142558l57.826787 9.557333v4.117526l-58.3557-10.648985c0.092252-0.504312 0.184505-1.008625 0.270607-1.512937l0.258306-1.512937z m-364.759255-4.664889c0.141453 1.014775 0.289057 2.02955 0.445886 3.038174L184.649571 548.150583v-4.0837z m422.586042-38.103255v3.991447l-55.462054 1.928072a187.069117 187.069117 0 0 0-0.061502-1.537537l-0.070726-1.534463 55.597357-2.847519z m-479.711712-6.211652l55.904865 4.30203c-0.079952 1.01785-0.147604 2.038775-0.209105 3.062775l-55.69576-3.361057v-4.003748z m479.711712-47.577562v4.28973l-61.175544 15.76591a183.08997 183.08997 0 0 0-0.390534-1.488336l-0.39976-1.482186 61.965838-17.085118z m-479.711712-6.55606l63.26352 19.179244c-0.298282 0.980949-0.584264 1.964973-0.867172 2.952072L184.649571 442.026667v-4.354307z m479.711712-54.241249v5.080024l-75.330114 38.355412a183.834138 183.834138 0 0 0-0.701117-1.368409l-0.716493-1.359183L664.361283 383.431111z m-479.711712-7.99827l79.023279 44.551688c-0.501237 0.891772-0.999399 1.792769-1.488336 2.693765L184.649571 380.657393v-5.224552zM664.361283 307.292252v6.759015l-97.070895 79.549117-1.968048-2.361657L664.361283 307.292252zM184.649571 296.298859l102.215496 91.298979c-0.685742 0.762619-1.362258 1.534462-2.02955 2.306306l-100.185946-86.541838v-7.063447z m479.711712-100.702559v10.63976l-125.669093 159.288889a185.220997 185.220997 0 0 0-1.21158-0.947123l-1.220805-0.937898L664.361283 195.5963zM184.649571 177.800841l132.012973 182.942366c-0.833345 0.59964-1.660541 1.208505-2.481585 1.82352L184.646496 189.209369V177.800841z m447.011364-113.664l0.039976 0.01845c0.937898 3.505586 2.429309 6.780541 4.366606 9.735688l-131.151952 270.462078c-0.922523-0.448961-1.84812-0.885622-2.779868-1.319207zM228.795349 58.99839l122.357237 282.116613c-0.937898 0.40591-1.875796 0.82412-2.807543 1.245405L221.27064 62.337922c2.500036-1.134703 5.006222-2.244805 7.524709-3.339532zM532.600466 55.351351l-65.357646 275.582078c-0.996324-0.236781-1.998799-0.464336-3.001273-0.685741L524.58067 55.351351h8.019796z m-196.032961 0l52.811339 273.946138c-1.008625 0.19373-2.014174 0.39976-3.013573 0.608865L328.649187 55.351351h7.915243z m95.45033 0l-4.434258 270.631208A188.206895 188.206895 0 0 0 424.505427 325.957958V55.351351h7.512408z" fill="#E7D796" p-id="12401"></path><path d="M630.535457 55.351351c0 18.681081 15.144745 33.825826 33.825826 33.825826v842.570571c-18.681081 0-33.825826 15.144745-33.825826 33.825826 0 0.83027 0.030751 1.64824 0.089177 2.46006H218.383145c0.061502-0.81182 0.089177-1.62979 0.089177-2.46006 0-18.681081-15.144745-33.825826-33.825826-33.825826V89.177177c18.681081 0 33.825826-15.144745 33.825826-33.825826h412.06006z m-5.676589 6.150151H224.148911l-0.046127 0.335183a40.006727 40.006727 0 0 1-32.967879 32.964804l-0.335184 0.049202v831.220468l0.335184 0.049201c17.469502 2.850595 31.135135 17.023616 33.21696 34.742199l0.101478 1.020924h400.101093l0.003075-0.052276c1.688216-18.167544 15.529129-32.811051 33.318439-35.710847l0.335183-0.052276V94.853766l-0.335183-0.049201a40.006727 40.006727 0 0 1-32.964805-32.96788l-0.052277-0.335183z" fill="#E7D796" p-id="12402"></path><path d="M424.505427 325.957958c101.898763 0 184.504505 82.605742 184.504505 184.504504s-82.605742 184.504505-184.504505 184.504505-184.504505-82.605742-184.504504-184.504505 82.605742-184.504505 184.504504-184.504504z m0 6.15015c-98.50388 0-178.354354 79.850474-178.354354 178.354354s79.850474 178.354354 178.354354 178.354355 178.354354-79.850474 178.354354-178.354355-79.850474-178.354354-178.354354-178.354354z" fill="#E7D796" p-id="12403"></path><path d="M424.505427 365.933934c-79.819724 0-144.528529 64.708805-144.528529 144.528528s64.708805 144.528529 144.528529 144.528529 144.528529-64.708805 144.528529-144.528529-64.708805-144.528529-144.528529-144.528528z m0 6.15015c76.424841 0 138.378378 61.953538 138.378378 138.378378s-61.953538 138.378378-138.378378 138.378379-138.378378-61.953538-138.378378-138.378379 61.953538-138.378378 138.378378-138.378378z" fill="#E7D796" p-id="12404"></path><path d="M396.842052 575.574102c0.940973 0.39976 1.894246 0.781069 2.853669 1.140853L392.257115 596.564565H387.912034z m23.97636 5.51976c1.020925 0.052276 2.044925 0.083027 3.075075 0.092252L423.761259 596.564565h-3.739291z m27.577273-4.040649l6.998871 19.511352h-4.172877l-5.74424-18.536553c0.492012-0.153754 0.980949-0.307508 1.466811-0.473562l1.451435-0.501237z m21.417898-12.28185l13.453454 16.110319-2.158703 3.739291-13.69946-17.927688c0.408985-0.310583 0.814895-0.627315 1.214655-0.947123l1.190054-0.974799z m-93.586835-2.623039c0.750318 0.701117 1.512937 1.383784 2.294006 2.051075l-13.391952 15.630607-2.0726-3.591688z m109.401946-16.082642l13.268949 7.746114-1.875796 3.247279-13.001417-8.370354c0.276757-0.430511 0.553514-0.861021 0.81797-1.300757l0.790294-1.322282z m-124.119255-3.419484c0.467411 0.913297 0.953273 1.814294 1.460661 2.706066l-13.364277 7.589286-1.87272-3.244205z m132.612613-19.628204l20.436949 3.662414-2.084901 3.613214-18.960913-4.258979c0.110703-0.498162 0.215255-0.999399 0.319808-1.503712l0.289057-1.512937z m-139.839039-4.065249c0.123003 1.020925 0.267532 2.038775 0.43051 3.044324l-20.984312 3.441009-2.174078-3.770042z m160.56197-24.216216l2.158702 3.739291-22.35272 2.87827a70.680601 70.680601 0 0 0-0.215256-1.525237l-0.242931-1.516012 20.652205-3.576312z m-177.905394-4.809418l18.696457 4.369682c-0.233706 0.996324-0.445886 1.998799-0.636541 3.013573l-20.132516-3.788492 2.0726-3.594763z m162.087207-22.589501l1.869646 3.241129-13.674859 7.155699a70.551447 70.551447 0 0 0-0.728793-1.353033l-0.756468-1.337657 13.287399-7.706138z m-146.665705-4.120601l12.961441 8.502583c-0.559664 0.857946-1.107027 1.728192-1.62979 2.607663l-13.207447-7.862967 1.875796-3.247279z m131.09045-22.853958l2.084901 3.610138-13.204372 14.382126a71.144937 71.144937 0 0 0-1.143928-1.027075l-1.168529-1.002474 13.431928-15.962715z m-115.11851-4.818643l13.75481 18.318223c-0.821045 0.615015-1.62979 1.24848-2.420084 1.900396l-13.505729-16.457802 2.171003-3.760817zM460.200898 424.36036l-8.607135 20.747532a70.234715 70.234715 0 0 0-2.859819-1.113177l7.152624-19.634355h4.31433z m-61.599903 0l5.519759 18.358199c-0.984024 0.295207-1.958823 0.61194-2.924396 0.947123L394.461944 424.36036h4.139051z m29.643723 0l-0.658066 15.439952A71.944456 71.944456 0 0 0 424.505427 439.735736v-15.375376h3.739291z" fill="#E7D796" p-id="12405"></path><path d="M424.505427 436.660661c-40.76012 0-73.801802 33.041682-73.801802 73.801801s33.041682 73.801802 73.801802 73.801802 73.801802-33.041682 73.801802-73.801802-33.041682-73.801802-73.801802-73.801801z m0 6.15015c37.362162 0 67.651652 30.289489 67.651652 67.651651s-30.289489 67.651652-67.651652 67.651652-67.651652-30.289489-67.651652-67.651652 30.289489-67.651652 67.651652-67.651651z" fill="#E7D796" p-id="12406"></path><path d="M578.966448 599.63964L424.505427 332.108108l-154.461021 267.531532h308.922042zM424.505427 344.411483L568.311313 593.489489H280.696466L424.505427 344.411483z" fill="#E7D796" p-id="12407"></path><path d="M579.67064 421.285285l-154.461021 267.531532L270.751673 421.285285h308.918967z m-154.461021 255.228156L569.015505 427.435435h-287.611772l143.805886 249.078006z" fill="#E7D796" p-id="12408"></path><path d="M428.137091 473.561562c5.535135 0 10.793514 1.183904 15.526054 3.30878-13.09367 1.220805-23.330595 11.906691-23.330595 24.908108 0 13.822462 11.565357 25.024961 25.830631 25.024961 7.164925 0 13.644108-2.822919 18.324372-7.38018-4.068324 16.051892-18.801009 27.940132-36.350462 27.940132C407.451061 547.363363 390.679601 530.840985 390.679601 510.462462s16.771459-36.900901 37.45749-36.9009z" fill="#E7D796" p-id="12409"></path></svg>