<svg xmlns="http://www.w3.org/2000/svg" xmlns:xlink="http://www.w3.org/1999/xlink" version="1.1" x="0px" y="0px" viewBox="6.5297698974609375 20.633384704589844 511.94329833984375 483.7314758300781" xml:space="preserve"><g><g><path d="M159.396,302.132c-2.126-2.127-5.102-3.172-8.089-2.877c-2.992,0.307-5.688,1.942-7.339,4.456l-34.349,52.261    c-24.142,0.147-44.517,19.811-44.517,44.912c0,24.819,20.084,44.908,44.907,44.908c25.072,0,44.768-20.343,44.913-44.518    l52.261-34.349c5.287-3.473,6.062-10.943,1.579-15.428L159.396,302.132z M139.094,387.746c-3.223,2.117-4.939,5.899-4.415,9.719    c2.088,15.175-9.717,28.328-24.669,28.328c-6.652,0-12.908-2.591-17.612-7.296c-9.712-9.711-9.712-25.513,0-35.224    c5.729-5.73,13.476-8.102,21.032-7.057c3.822,0.524,7.602-1.193,9.719-4.415l30.788-46.844l32.001,32L139.094,387.746z"></path><path d="M515.542,122.296l-35.244-35.244l7.034-7.034c3.905-3.905,3.905-10.237,0-14.143l-42.314-42.314    c-3.905-3.903-10.237-3.904-14.143,0l-204.5,204.501l-10.56-10.56c-13.654-13.652-35.749-13.653-49.404,0    c-11.243,11.244-13.083,27.993-6.217,40.99c-40.753-9.687-85.469,1.328-117.2,33.06c-48.619,48.619-48.619,127.729,0,176.349    c48.619,48.617,127.725,48.62,176.348,0c31.73-31.73,42.746-76.447,33.06-117.2c12.997,6.866,29.745,5.028,40.991-6.217    c13.652-13.654,13.653-35.75,0-49.405l-10.56-10.56l91.643-91.643l35.243,35.243c3.907,3.905,10.236,3.904,14.143,0l28.21-28.209    c3.905-3.905,3.905-10.236,0-14.143l-7.034-7.034l21.12-21.119l7.033,7.033c3.906,3.904,10.236,3.906,14.143,0l28.21-28.209    c1.875-1.875,2.929-4.419,2.929-7.071S517.417,124.172,515.542,122.296z M205.198,453.759c-40.82,40.82-107.242,40.82-148.063,0    c-40.821-40.821-40.821-107.242,0-148.063c20.413-20.413,47.218-30.615,74.031-30.615c46.981,0,73.682,30.396,74.05,30.635    C246.02,346.538,246.013,412.944,205.198,453.759z M279.249,330.342c-5.833,5.835-15.284,5.838-21.12,0    c-8.473-8.473-69.024-69.025-77.576-77.577c-5.835-5.833-5.838-15.283,0-21.119c5.833-5.835,15.283-5.838,21.119,0l77.577,77.576    C285.084,315.055,285.088,324.506,279.249,330.342z M240.517,242.206l197.429-197.43l28.172,28.172    c-21.253,21.253-176.635,176.636-197.429,197.43L240.517,242.206z M480.261,143.435l-7.033-7.034    c-3.906-3.904-10.236-3.904-14.143,0l-35.262,35.262c-3.905,3.905-3.905,10.237,0,14.143l7.034,7.034l-14.068,14.067    l-28.172-28.173c7.424-7.424,70.283-70.282,77.539-77.538l28.172,28.172L480.261,143.435z"></path></g></g></svg>